<?xml version="1.0" encoding="UTF-8"?>
<svg xmlns="http://www.w3.org/2000/svg" version="1.1" width="500" height="500" viewBox="0 0 500 500"><rect x="0" y="0" width="500" height="500" fill="#000000"/><g transform="scale(15.152)"><g transform="translate(0,0)"><g><g transform="translate(3.5,3.5)"><path fill-rule="evenodd" d="M-3.5 -3.5L3.5 -3.5L3.5 3.5L-3.5 3.5ZM-2.5 -2.5L-2.5 2.5L2.5 2.5L2.5 -2.5Z" fill="#ffffff"/><path fill-rule="evenodd" d="M-1.5 -1.5L1.5 -1.5L1.5 1.5L-1.5 1.5Z" fill="#ffffff"/></g></g><g><g transform="translate(29.5,3.5)"><g transform="rotate(90)"><path fill-rule="evenodd" d="M-3.5 -3.5L3.5 -3.5L3.5 3.5L-3.5 3.5ZM-2.5 -2.5L-2.5 2.5L2.5 2.5L2.5 -2.5Z" fill="#ffffff"/><path fill-rule="evenodd" d="M-1.5 -1.5L1.5 -1.5L1.5 1.5L-1.5 1.5Z" fill="#ffffff"/></g></g></g><g><g transform="translate(3.5,29.5)"><g transform="rotate(-90)"><path fill-rule="evenodd" d="M-3.5 -3.5L3.5 -3.5L3.5 3.5L-3.5 3.5ZM-2.5 -2.5L-2.5 2.5L2.5 2.5L2.5 -2.5Z" fill="#ffffff"/><path fill-rule="evenodd" d="M-1.5 -1.5L1.5 -1.5L1.5 1.5L-1.5 1.5Z" fill="#ffffff"/></g></g></g><path fill-rule="evenodd" d="M9 0L9 1L8 1L8 2L9 2L9 1L10 1L10 0ZM11 0L11 2L10 2L10 3L14 3L14 5L13 5L13 4L12 4L12 5L11 5L11 4L9 4L9 3L8 3L8 4L9 4L9 5L8 5L8 7L9 7L9 5L11 5L11 6L10 6L10 8L11 8L11 6L12 6L12 7L13 7L13 8L12 8L12 9L13 9L13 8L14 8L14 7L15 7L15 4L16 4L16 5L17 5L17 6L16 6L16 8L15 8L15 9L14 9L14 10L12 10L12 11L14 11L14 12L13 12L13 13L14 13L14 14L12 14L12 13L11 13L11 14L10 14L10 17L11 17L11 18L10 18L10 19L9 19L9 17L8 17L8 16L6 16L6 15L8 15L8 14L9 14L9 13L10 13L10 10L11 10L11 9L9 9L9 8L6 8L6 9L5 9L5 8L0 8L0 9L1 9L1 11L0 11L0 13L1 13L1 11L3 11L3 10L4 10L4 9L5 9L5 10L6 10L6 11L4 11L4 12L3 12L3 13L2 13L2 14L1 14L1 16L0 16L0 18L4 18L4 16L3 16L3 15L2 15L2 14L3 14L3 13L4 13L4 12L5 12L5 13L8 13L8 14L6 14L6 15L5 15L5 14L4 14L4 15L5 15L5 16L6 16L6 17L7 17L7 18L5 18L5 19L7 19L7 18L8 18L8 19L9 19L9 20L6 20L6 21L5 21L5 20L4 20L4 19L3 19L3 20L2 20L2 21L1 21L1 19L0 19L0 25L1 25L1 22L2 22L2 24L3 24L3 25L5 25L5 24L6 24L6 25L7 25L7 24L6 24L6 23L7 23L7 22L9 22L9 20L10 20L10 19L11 19L11 18L12 18L12 19L13 19L13 20L14 20L14 19L16 19L16 20L15 20L15 21L14 21L14 22L13 22L13 21L10 21L10 23L11 23L11 24L10 24L10 25L9 25L9 24L8 24L8 27L9 27L9 28L8 28L8 33L10 33L10 32L9 32L9 30L10 30L10 31L11 31L11 32L12 32L12 33L17 33L17 32L18 32L18 33L19 33L19 32L21 32L21 31L18 31L18 30L20 30L20 29L21 29L21 30L22 30L22 28L23 28L23 26L22 26L22 25L23 25L23 24L24 24L24 30L23 30L23 31L25 31L25 32L26 32L26 33L28 33L28 32L29 32L29 33L30 33L30 31L31 31L31 33L32 33L32 32L33 32L33 31L31 31L31 30L32 30L32 29L33 29L33 27L32 27L32 26L31 26L31 25L32 25L32 24L31 24L31 25L29 25L29 24L27 24L27 23L26 23L26 21L27 21L27 22L28 22L28 23L30 23L30 22L31 22L31 23L33 23L33 22L31 22L31 21L32 21L32 20L31 20L31 19L33 19L33 18L32 18L32 16L31 16L31 14L32 14L32 10L31 10L31 9L32 9L32 8L31 8L31 9L30 9L30 8L29 8L29 10L27 10L27 11L26 11L26 8L25 8L25 9L23 9L23 8L24 8L24 7L25 7L25 5L24 5L24 7L23 7L23 3L24 3L24 2L25 2L25 1L23 1L23 0L21 0L21 1L20 1L20 0L18 0L18 1L19 1L19 2L17 2L17 1L15 1L15 0L14 0L14 1L13 1L13 0ZM12 1L12 2L13 2L13 1ZM21 1L21 2L20 2L20 3L19 3L19 4L18 4L18 3L16 3L16 2L14 2L14 3L16 3L16 4L17 4L17 5L18 5L18 6L17 6L17 7L18 7L18 6L19 6L19 8L18 8L18 9L16 9L16 11L15 11L15 12L14 12L14 13L15 13L15 14L18 14L18 15L17 15L17 16L16 16L16 15L15 15L15 16L14 16L14 15L11 15L11 17L12 17L12 16L14 16L14 17L13 17L13 18L14 18L14 17L15 17L15 16L16 16L16 17L17 17L17 18L18 18L18 19L19 19L19 18L18 18L18 17L20 17L20 18L21 18L21 19L20 19L20 20L19 20L19 21L18 21L18 20L16 20L16 23L14 23L14 24L17 24L17 26L16 26L16 25L15 25L15 26L16 26L16 27L14 27L14 28L16 28L16 29L12 29L12 28L10 28L10 30L11 30L11 29L12 29L12 30L14 30L14 32L16 32L16 31L17 31L17 30L18 30L18 29L20 29L20 28L19 28L19 25L20 25L20 24L19 24L19 25L18 25L18 23L19 23L19 22L20 22L20 23L22 23L22 24L21 24L21 25L22 25L22 24L23 24L23 23L24 23L24 24L26 24L26 23L25 23L25 22L23 22L23 23L22 23L22 22L20 22L20 20L22 20L22 21L26 21L26 19L27 19L27 20L29 20L29 19L30 19L30 18L29 18L29 16L30 16L30 17L31 17L31 16L30 16L30 15L27 15L27 13L28 13L28 14L29 14L29 13L28 13L28 12L29 12L29 11L30 11L30 12L31 12L31 11L30 11L30 10L29 10L29 11L27 11L27 12L25 12L25 11L24 11L24 10L23 10L23 9L22 9L22 8L23 8L23 7L22 7L22 5L21 5L21 4L22 4L22 3L23 3L23 2L22 2L22 1ZM19 4L19 5L20 5L20 4ZM12 5L12 6L13 6L13 7L14 7L14 6L13 6L13 5ZM20 6L20 13L19 13L19 11L18 11L18 10L19 10L19 9L18 9L18 10L17 10L17 11L16 11L16 12L15 12L15 13L16 13L16 12L18 12L18 13L19 13L19 14L20 14L20 17L21 17L21 18L22 18L22 20L24 20L24 19L23 19L23 16L24 16L24 18L25 18L25 19L26 19L26 18L25 18L25 17L26 17L26 16L27 16L27 15L26 15L26 14L25 14L25 13L24 13L24 15L23 15L23 13L21 13L21 10L22 10L22 11L23 11L23 12L24 12L24 11L23 11L23 10L22 10L22 9L21 9L21 6ZM27 8L27 9L28 9L28 8ZM6 9L6 10L7 10L7 11L6 11L6 12L7 12L7 11L9 11L9 10L8 10L8 9ZM20 13L20 14L21 14L21 15L22 15L22 16L23 16L23 15L22 15L22 14L21 14L21 13ZM24 15L24 16L25 16L25 15ZM1 16L1 17L2 17L2 16ZM27 18L27 19L29 19L29 18ZM30 20L30 21L28 21L28 22L30 22L30 21L31 21L31 20ZM6 21L6 22L7 22L7 21ZM3 22L3 24L4 24L4 23L5 23L5 22ZM12 22L12 23L13 23L13 22ZM17 22L17 23L18 23L18 22ZM11 24L11 25L12 25L12 26L14 26L14 25L12 25L12 24ZM25 25L25 28L28 28L28 25ZM17 26L17 27L16 27L16 28L17 28L17 27L18 27L18 26ZM20 26L20 27L21 27L21 28L22 28L22 26ZM26 26L26 27L27 27L27 26ZM31 27L31 29L32 29L32 27ZM29 28L29 29L30 29L30 28ZM16 29L16 30L17 30L17 29ZM29 30L29 31L30 31L30 30ZM26 31L26 32L28 32L28 31ZM22 32L22 33L24 33L24 32Z" fill="#ffffff"/></g></g></svg>
